<mxfile host="app.diagrams.net" modified="2022-07-05T16:28:14.013Z" agent="5.0 (Windows NT 10.0; Win64; x64) AppleWebKit/537.36 (KHTML, like Gecko) Chrome/103.0.0.0 Safari/537.36" etag="J4G2DKJ4jA5Qs25FIUDq" version="20.0.4" type="github">
  <diagram id="xzFoUq4s8zxth7CcR7iU" name="Page-1">
    <mxGraphModel dx="1237" dy="656" grid="1" gridSize="10" guides="1" tooltips="1" connect="1" arrows="1" fold="1" page="1" pageScale="1" pageWidth="827" pageHeight="1169" math="0" shadow="0">
      <root>
        <mxCell id="0" />
        <mxCell id="1" parent="0" />
        <mxCell id="H82SIsyJsCoQ4RJKaOSr-1" value="Admin" style="shape=umlActor;verticalLabelPosition=bottom;verticalAlign=top;html=1;outlineConnect=0;fillColor=#3BD8FF;" parent="1" vertex="1">
          <mxGeometry x="150" y="210" width="30" height="60" as="geometry" />
        </mxCell>
        <mxCell id="H82SIsyJsCoQ4RJKaOSr-2" value="Calon Siswa" style="shape=umlActor;verticalLabelPosition=bottom;verticalAlign=top;html=1;outlineConnect=0;fillColor=#3BD8FF;" parent="1" vertex="1">
          <mxGeometry x="1070" y="210" width="30" height="60" as="geometry" />
        </mxCell>
        <mxCell id="H82SIsyJsCoQ4RJKaOSr-4" value="" style="rounded=0;whiteSpace=wrap;html=1;strokeColor=#000000;fillColor=#3BD8FF;" parent="1" vertex="1">
          <mxGeometry x="339.75" y="160" width="570" height="810" as="geometry" />
        </mxCell>
        <mxCell id="H82SIsyJsCoQ4RJKaOSr-5" value="Website Penerimaan Siswa Baru Berbasis Online" style="text;html=1;strokeColor=none;fillColor=none;align=center;verticalAlign=middle;whiteSpace=wrap;rounded=0;" parent="1" vertex="1">
          <mxGeometry x="434.75" y="180" width="380" height="30" as="geometry" />
        </mxCell>
        <mxCell id="H82SIsyJsCoQ4RJKaOSr-7" value="&lt;font style=&quot;font-size: 10px;&quot;&gt;Login&lt;/font&gt;" style="ellipse;whiteSpace=wrap;html=1;align=center;newEdgeStyle={&quot;edgeStyle&quot;:&quot;entityRelationEdgeStyle&quot;,&quot;startArrow&quot;:&quot;none&quot;,&quot;endArrow&quot;:&quot;none&quot;,&quot;segment&quot;:10,&quot;curved&quot;:1};treeFolding=1;treeMoving=1;strokeColor=#000000;fillColor=#3BD8FF;" parent="1" vertex="1">
          <mxGeometry x="567.5" y="240" width="110" height="40" as="geometry" />
        </mxCell>
        <mxCell id="H82SIsyJsCoQ4RJKaOSr-8" value="&lt;font style=&quot;font-size: 10px;&quot;&gt;Dashboard&lt;/font&gt;" style="ellipse;whiteSpace=wrap;html=1;align=center;newEdgeStyle={&quot;edgeStyle&quot;:&quot;entityRelationEdgeStyle&quot;,&quot;startArrow&quot;:&quot;none&quot;,&quot;endArrow&quot;:&quot;none&quot;,&quot;segment&quot;:10,&quot;curved&quot;:1};treeFolding=1;treeMoving=1;strokeColor=#000000;fillColor=#3BD8FF;" parent="1" vertex="1">
          <mxGeometry x="567.5" y="310" width="110" height="40" as="geometry" />
        </mxCell>
        <mxCell id="H82SIsyJsCoQ4RJKaOSr-9" value="&lt;font style=&quot;font-size: 10px;&quot;&gt;Data Pendaftaran&lt;br&gt;&lt;br&gt;&lt;br&gt;&lt;/font&gt;" style="ellipse;whiteSpace=wrap;html=1;align=center;newEdgeStyle={&quot;edgeStyle&quot;:&quot;entityRelationEdgeStyle&quot;,&quot;startArrow&quot;:&quot;none&quot;,&quot;endArrow&quot;:&quot;none&quot;,&quot;segment&quot;:10,&quot;curved&quot;:1};treeFolding=1;treeMoving=1;strokeColor=#000000;fillColor=#3BD8FF;" parent="1" vertex="1">
          <mxGeometry x="554" y="380" width="140" height="60" as="geometry" />
        </mxCell>
        <mxCell id="H82SIsyJsCoQ4RJKaOSr-12" value="&lt;span style=&quot;font-size: 10px;&quot;&gt;Logout&lt;/span&gt;" style="ellipse;whiteSpace=wrap;html=1;align=center;newEdgeStyle={&quot;edgeStyle&quot;:&quot;entityRelationEdgeStyle&quot;,&quot;startArrow&quot;:&quot;none&quot;,&quot;endArrow&quot;:&quot;none&quot;,&quot;segment&quot;:10,&quot;curved&quot;:1};treeFolding=1;treeMoving=1;strokeColor=#000000;fillColor=#3BD8FF;" parent="1" vertex="1">
          <mxGeometry x="569.75" y="830" width="110" height="40" as="geometry" />
        </mxCell>
        <mxCell id="H82SIsyJsCoQ4RJKaOSr-15" value="" style="endArrow=none;html=1;rounded=0;fontSize=10;exitX=0.017;exitY=0.615;exitDx=0;exitDy=0;exitPerimeter=0;entryX=1;entryY=0.61;entryDx=0;entryDy=0;entryPerimeter=0;" parent="1" source="H82SIsyJsCoQ4RJKaOSr-9" target="H82SIsyJsCoQ4RJKaOSr-9" edge="1">
          <mxGeometry width="50" height="50" relative="1" as="geometry">
            <mxPoint x="760" y="386" as="sourcePoint" />
            <mxPoint x="940" y="375" as="targetPoint" />
          </mxGeometry>
        </mxCell>
        <mxCell id="H82SIsyJsCoQ4RJKaOSr-16" value="&lt;b&gt;&lt;font style=&quot;font-size: 9px;&quot;&gt;Extension Poin&lt;/font&gt;&lt;/b&gt;" style="text;html=1;strokeColor=none;fillColor=none;align=center;verticalAlign=middle;whiteSpace=wrap;rounded=0;fontSize=10;" parent="1" vertex="1">
          <mxGeometry x="555.5" y="410" width="140" height="30" as="geometry" />
        </mxCell>
        <mxCell id="b-vWbvSDfBjsvnJ0sOcm-1" value="&lt;font style=&quot;font-size: 10px;&quot;&gt;Status Pendaftaran&lt;br&gt;&lt;br&gt;&lt;br&gt;&lt;/font&gt;" style="ellipse;whiteSpace=wrap;html=1;align=center;newEdgeStyle={&quot;edgeStyle&quot;:&quot;entityRelationEdgeStyle&quot;,&quot;startArrow&quot;:&quot;none&quot;,&quot;endArrow&quot;:&quot;none&quot;,&quot;segment&quot;:10,&quot;curved&quot;:1};treeFolding=1;treeMoving=1;strokeColor=#000000;fillColor=#3BD8FF;" parent="1" vertex="1">
          <mxGeometry x="553.25" y="560" width="140" height="60" as="geometry" />
        </mxCell>
        <mxCell id="b-vWbvSDfBjsvnJ0sOcm-4" value="" style="endArrow=none;html=1;rounded=0;" parent="1" edge="1">
          <mxGeometry width="50" height="50" relative="1" as="geometry">
            <mxPoint x="557.5" y="600" as="sourcePoint" />
            <mxPoint x="687.5" y="600" as="targetPoint" />
          </mxGeometry>
        </mxCell>
        <mxCell id="b-vWbvSDfBjsvnJ0sOcm-5" value="&lt;b&gt;&lt;font style=&quot;font-size: 9px;&quot;&gt;Extension Poin&lt;/font&gt;&lt;/b&gt;" style="text;html=1;strokeColor=none;fillColor=none;align=center;verticalAlign=middle;whiteSpace=wrap;rounded=0;fontSize=10;" parent="1" vertex="1">
          <mxGeometry x="554.75" y="590" width="140" height="40" as="geometry" />
        </mxCell>
        <mxCell id="QJz50JPR7f3OH6tESURl-12" value="&lt;font style=&quot;font-size: 10px;&quot;&gt;Data Jurusan&lt;br&gt;&lt;br&gt;&lt;br&gt;&lt;/font&gt;" style="ellipse;whiteSpace=wrap;html=1;align=center;newEdgeStyle={&quot;edgeStyle&quot;:&quot;entityRelationEdgeStyle&quot;,&quot;startArrow&quot;:&quot;none&quot;,&quot;endArrow&quot;:&quot;none&quot;,&quot;segment&quot;:10,&quot;curved&quot;:1};treeFolding=1;treeMoving=1;strokeColor=#000000;fillColor=#3BD8FF;" vertex="1" parent="1">
          <mxGeometry x="553.25" y="470" width="140" height="60" as="geometry" />
        </mxCell>
        <mxCell id="QJz50JPR7f3OH6tESURl-13" value="&lt;b&gt;&lt;font style=&quot;font-size: 9px;&quot;&gt;Extension Poin&lt;/font&gt;&lt;/b&gt;" style="text;html=1;strokeColor=none;fillColor=none;align=center;verticalAlign=middle;whiteSpace=wrap;rounded=0;fontSize=10;" vertex="1" parent="1">
          <mxGeometry x="554.75" y="500" width="140" height="30" as="geometry" />
        </mxCell>
        <mxCell id="QJz50JPR7f3OH6tESURl-15" value="" style="endArrow=none;html=1;rounded=0;exitX=-0.006;exitY=0.16;exitDx=0;exitDy=0;exitPerimeter=0;" edge="1" parent="1" source="QJz50JPR7f3OH6tESURl-13">
          <mxGeometry width="50" height="50" relative="1" as="geometry">
            <mxPoint x="560" y="510" as="sourcePoint" />
            <mxPoint x="690" y="505" as="targetPoint" />
          </mxGeometry>
        </mxCell>
        <mxCell id="QJz50JPR7f3OH6tESURl-18" value="&lt;font style=&quot;font-size: 10px;&quot;&gt;Laporan Pendaftaran&lt;br&gt;&lt;br&gt;&lt;br&gt;&lt;/font&gt;" style="ellipse;whiteSpace=wrap;html=1;align=center;newEdgeStyle={&quot;edgeStyle&quot;:&quot;entityRelationEdgeStyle&quot;,&quot;startArrow&quot;:&quot;none&quot;,&quot;endArrow&quot;:&quot;none&quot;,&quot;segment&quot;:10,&quot;curved&quot;:1};treeFolding=1;treeMoving=1;strokeColor=#000000;fillColor=#3BD8FF;" vertex="1" parent="1">
          <mxGeometry x="554.75" y="740" width="140" height="60" as="geometry" />
        </mxCell>
        <mxCell id="QJz50JPR7f3OH6tESURl-19" value="&lt;b&gt;&lt;font style=&quot;font-size: 9px;&quot;&gt;Extension Poin&lt;/font&gt;&lt;/b&gt;" style="text;html=1;strokeColor=none;fillColor=none;align=center;verticalAlign=middle;whiteSpace=wrap;rounded=0;fontSize=10;" vertex="1" parent="1">
          <mxGeometry x="556.25" y="770" width="140" height="40" as="geometry" />
        </mxCell>
        <mxCell id="QJz50JPR7f3OH6tESURl-20" value="&lt;font style=&quot;font-size: 10px;&quot;&gt;Register User&lt;br&gt;&lt;br&gt;&lt;br&gt;&lt;/font&gt;" style="ellipse;whiteSpace=wrap;html=1;align=center;newEdgeStyle={&quot;edgeStyle&quot;:&quot;entityRelationEdgeStyle&quot;,&quot;startArrow&quot;:&quot;none&quot;,&quot;endArrow&quot;:&quot;none&quot;,&quot;segment&quot;:10,&quot;curved&quot;:1};treeFolding=1;treeMoving=1;strokeColor=#000000;fillColor=#3BD8FF;" vertex="1" parent="1">
          <mxGeometry x="550.25" y="650" width="140" height="60" as="geometry" />
        </mxCell>
        <mxCell id="QJz50JPR7f3OH6tESURl-21" value="&lt;b&gt;&lt;font style=&quot;font-size: 9px;&quot;&gt;Extension Poin&lt;/font&gt;&lt;/b&gt;" style="text;html=1;strokeColor=none;fillColor=none;align=center;verticalAlign=middle;whiteSpace=wrap;rounded=0;fontSize=10;" vertex="1" parent="1">
          <mxGeometry x="552.5" y="680" width="140" height="40" as="geometry" />
        </mxCell>
        <mxCell id="QJz50JPR7f3OH6tESURl-22" value="" style="endArrow=none;html=1;rounded=0;exitX=0;exitY=0.25;exitDx=0;exitDy=0;" edge="1" parent="1">
          <mxGeometry width="50" height="50" relative="1" as="geometry">
            <mxPoint x="556.75" y="690" as="sourcePoint" />
            <mxPoint x="685" y="690" as="targetPoint" />
          </mxGeometry>
        </mxCell>
        <mxCell id="QJz50JPR7f3OH6tESURl-23" value="" style="endArrow=none;html=1;rounded=0;exitX=0;exitY=0.25;exitDx=0;exitDy=0;" edge="1" parent="1">
          <mxGeometry width="50" height="50" relative="1" as="geometry">
            <mxPoint x="559.87" y="780" as="sourcePoint" />
            <mxPoint x="688.12" y="780" as="targetPoint" />
          </mxGeometry>
        </mxCell>
        <mxCell id="QJz50JPR7f3OH6tESURl-29" value="" style="endArrow=none;html=1;rounded=0;entryX=0;entryY=0.5;entryDx=0;entryDy=0;" edge="1" parent="1" target="H82SIsyJsCoQ4RJKaOSr-7">
          <mxGeometry width="50" height="50" relative="1" as="geometry">
            <mxPoint x="190" y="260" as="sourcePoint" />
            <mxPoint x="480" y="390" as="targetPoint" />
          </mxGeometry>
        </mxCell>
        <mxCell id="QJz50JPR7f3OH6tESURl-30" value="" style="endArrow=none;html=1;rounded=0;entryX=0;entryY=0.5;entryDx=0;entryDy=0;" edge="1" parent="1">
          <mxGeometry width="50" height="50" relative="1" as="geometry">
            <mxPoint x="677.5" y="259.17" as="sourcePoint" />
            <mxPoint x="1055" y="259.17" as="targetPoint" />
          </mxGeometry>
        </mxCell>
        <mxCell id="QJz50JPR7f3OH6tESURl-31" value="" style="endArrow=none;html=1;rounded=0;" edge="1" parent="1">
          <mxGeometry width="50" height="50" relative="1" as="geometry">
            <mxPoint x="677.5" y="329.57000000000005" as="sourcePoint" />
            <mxPoint x="1070" y="300" as="targetPoint" />
            <Array as="points">
              <mxPoint x="1070" y="330" />
            </Array>
          </mxGeometry>
        </mxCell>
        <mxCell id="QJz50JPR7f3OH6tESURl-33" value="" style="endArrow=none;html=1;rounded=0;" edge="1" parent="1">
          <mxGeometry width="50" height="50" relative="1" as="geometry">
            <mxPoint x="694.75" y="409.57000000000016" as="sourcePoint" />
            <mxPoint x="1080" y="300" as="targetPoint" />
            <Array as="points">
              <mxPoint x="1080" y="410" />
            </Array>
          </mxGeometry>
        </mxCell>
        <mxCell id="QJz50JPR7f3OH6tESURl-34" value="" style="endArrow=none;html=1;rounded=0;entryX=0;entryY=0.5;entryDx=0;entryDy=0;" edge="1" parent="1">
          <mxGeometry width="50" height="50" relative="1" as="geometry">
            <mxPoint x="200" y="300" as="sourcePoint" />
            <mxPoint x="567.4999999999939" y="329.57" as="targetPoint" />
            <Array as="points">
              <mxPoint x="200" y="330" />
            </Array>
          </mxGeometry>
        </mxCell>
        <mxCell id="QJz50JPR7f3OH6tESURl-35" value="" style="endArrow=none;html=1;rounded=0;entryX=0;entryY=0.5;entryDx=0;entryDy=0;" edge="1" parent="1">
          <mxGeometry width="50" height="50" relative="1" as="geometry">
            <mxPoint x="180" y="300" as="sourcePoint" />
            <mxPoint x="552.4999999999939" y="499.56999999999994" as="targetPoint" />
            <Array as="points">
              <mxPoint x="180" y="500" />
            </Array>
          </mxGeometry>
        </mxCell>
        <mxCell id="QJz50JPR7f3OH6tESURl-36" value="" style="endArrow=none;html=1;rounded=0;entryX=0;entryY=0.5;entryDx=0;entryDy=0;" edge="1" parent="1">
          <mxGeometry width="50" height="50" relative="1" as="geometry">
            <mxPoint x="170" y="300" as="sourcePoint" />
            <mxPoint x="550.2499999999939" y="679.5699999999999" as="targetPoint" />
            <Array as="points">
              <mxPoint x="170" y="680" />
            </Array>
          </mxGeometry>
        </mxCell>
        <mxCell id="QJz50JPR7f3OH6tESURl-37" value="" style="endArrow=none;html=1;rounded=0;entryX=0;entryY=0.5;entryDx=0;entryDy=0;" edge="1" parent="1">
          <mxGeometry width="50" height="50" relative="1" as="geometry">
            <mxPoint x="160" y="300" as="sourcePoint" />
            <mxPoint x="553.9999999999939" y="769.5699999999999" as="targetPoint" />
            <Array as="points">
              <mxPoint x="160" y="770" />
            </Array>
          </mxGeometry>
        </mxCell>
        <mxCell id="QJz50JPR7f3OH6tESURl-38" value="" style="endArrow=none;html=1;rounded=0;" edge="1" parent="1">
          <mxGeometry width="50" height="50" relative="1" as="geometry">
            <mxPoint x="693.25" y="589.5700000000002" as="sourcePoint" />
            <mxPoint x="1100" y="300" as="targetPoint" />
            <Array as="points">
              <mxPoint x="1100" y="590" />
            </Array>
          </mxGeometry>
        </mxCell>
        <mxCell id="QJz50JPR7f3OH6tESURl-39" value="" style="endArrow=none;html=1;rounded=0;entryX=0;entryY=0.5;entryDx=0;entryDy=0;" edge="1" parent="1">
          <mxGeometry width="50" height="50" relative="1" as="geometry">
            <mxPoint x="140" y="300" as="sourcePoint" />
            <mxPoint x="569.7499999999939" y="849.5699999999999" as="targetPoint" />
            <Array as="points">
              <mxPoint x="140" y="850" />
            </Array>
          </mxGeometry>
        </mxCell>
        <mxCell id="QJz50JPR7f3OH6tESURl-40" value="" style="endArrow=none;html=1;rounded=0;" edge="1" parent="1">
          <mxGeometry width="50" height="50" relative="1" as="geometry">
            <mxPoint x="679.75" y="849.5700000000002" as="sourcePoint" />
            <mxPoint x="1130" y="300" as="targetPoint" />
            <Array as="points">
              <mxPoint x="1130" y="850" />
            </Array>
          </mxGeometry>
        </mxCell>
      </root>
    </mxGraphModel>
  </diagram>
</mxfile>
